<svg width="54" height="52" viewBox="0 0 54 52" fill="none" xmlns="http://www.w3.org/2000/svg">
<g filter="url(#filter0_d_190_2998)">
<path d="M39.0003 22.0004C39.0003 23.105 38.1049 24.0004 37.0003 24.0004C35.8957 24.0004 35.0003 23.105 35.0003 22.0004C35.0003 20.8958 35.8957 20.0004 37.0003 20.0004C38.1049 20.0004 39.0003 20.8958 39.0003 22.0004Z" fill="white"/>
<path d="M35.0003 26.0004C35.0003 27.105 34.1049 28.0004 33.0003 28.0004C31.8957 28.0004 31.0003 27.105 31.0003 26.0004C31.0003 24.8958 31.8957 24.0004 33.0003 24.0004C34.1049 24.0004 35.0003 24.8958 35.0003 26.0004Z" fill="white"/>
<path d="M43.0003 26.0004C43.0003 27.105 42.1049 28.0004 41.0003 28.0004C39.8957 28.0004 39.0003 27.105 39.0003 26.0004C39.0003 24.8958 39.8957 24.0004 41.0003 24.0004C42.1049 24.0004 43.0003 24.8958 43.0003 26.0004Z" fill="white"/>
<path d="M39.0003 30.0004C39.0003 31.105 38.1049 32.0004 37.0003 32.0004C35.8957 32.0004 35.0003 31.105 35.0003 30.0004C35.0003 28.8958 35.8957 28.0004 37.0003 28.0004C38.1049 28.0004 39.0003 28.8958 39.0003 30.0004Z" fill="white"/>
<path d="M18.5002 22.0004C18.5002 21.172 17.8286 20.5004 17.0002 20.5004C16.1717 20.5004 15.5002 21.172 15.5002 22.0004V24.5004H13.0002C12.1717 24.5004 11.5002 25.172 11.5002 26.0004C11.5002 26.8288 12.1717 27.5004 13.0002 27.5004H15.5002V30.0004C15.5002 30.8288 16.1717 31.5004 17.0002 31.5004C17.8286 31.5004 18.5002 30.8288 18.5002 30.0004V27.5004H21.0002C21.8286 27.5004 22.5002 26.8288 22.5002 26.0004C22.5002 25.172 21.8286 24.5004 21.0002 24.5004H18.5002V22.0004Z" fill="white"/>
<path fill-rule="evenodd" clip-rule="evenodd" d="M36.4085 6.51679C36.6937 5.739 36.2943 4.87728 35.5165 4.59209C34.7387 4.3069 33.877 4.70624 33.5918 5.48403L33.1074 6.80525C32.8141 7.60505 32.0528 8.13677 31.201 8.13677C28.8203 8.13677 26.7655 9.8056 26.2773 12.1357L25.5853 15.4387C25.4682 15.4189 25.3515 15.3967 25.2351 15.372C24.3988 15.1944 23.5686 14.8338 21.5179 13.9224L20.456 13.4504C19.0467 12.824 17.5216 12.5004 15.9794 12.5004C9.27182 12.5004 4.11933 18.4413 5.06793 25.0814L5.52972 28.314L8.44227 38.5079C9.28659 41.463 11.9876 43.5004 15.061 43.5004C17.4032 43.5004 19.5847 42.3094 20.8513 40.3392L21.6 39.1745C24.1271 35.2435 29.8732 35.2435 32.4003 39.1745L32.8583 39.8869C34.3061 42.139 36.7996 43.5004 39.4769 43.5004C43.3926 43.5004 46.7124 40.6212 47.2662 36.7448L48.9324 25.0814C49.881 18.4413 44.7285 12.5004 38.0209 12.5004C36.4787 12.5004 34.9536 12.824 33.5444 13.4504L32.4824 13.9224C30.4317 14.8338 29.6016 15.1944 28.7652 15.372C28.7301 15.3794 28.695 15.3866 28.6599 15.3936L29.2136 12.7509C29.4106 11.8104 30.24 11.1368 31.201 11.1368C33.3114 11.1368 35.1975 9.81946 35.924 7.83802L36.4085 6.51679ZM8.03778 24.6572C7.34737 19.8243 11.0975 15.5004 15.9794 15.5004C17.1019 15.5004 18.2118 15.736 19.2375 16.1918L20.4614 16.7358C22.2994 17.5529 23.4304 18.0557 24.6121 18.3066C25.3288 18.4587 26.0563 18.5416 26.7848 18.5552C27.6569 18.5715 28.5304 18.4887 29.3882 18.3066C30.5699 18.0557 31.7009 17.5529 33.5389 16.7358L34.7628 16.1918C35.7885 15.736 36.8985 15.5004 38.0209 15.5004C42.9028 15.5004 46.6529 19.8243 45.9625 24.6572L44.2963 36.3206C43.9537 38.7189 41.8997 40.5004 39.4769 40.5004C37.8204 40.5004 36.2776 39.6581 35.3818 38.2647L34.9238 37.5522C31.2159 31.7843 22.7844 31.7843 19.0765 37.5522L18.3278 38.7169C17.6132 39.8285 16.3824 40.5004 15.061 40.5004C13.327 40.5004 11.8032 39.351 11.3268 37.6837L8.47059 27.6868L8.03778 24.6572Z" fill="white"/>
</g>
<defs>
<filter id="filter0_d_190_2998" x="-1" y="0" width="56" height="56" filterUnits="userSpaceOnUse" color-interpolation-filters="sRGB">
<feFlood flood-opacity="0" result="BackgroundImageFix"/>
<feColorMatrix in="SourceAlpha" type="matrix" values="0 0 0 0 0 0 0 0 0 0 0 0 0 0 0 0 0 0 127 0" result="hardAlpha"/>
<feOffset dy="4"/>
<feGaussianBlur stdDeviation="2"/>
<feComposite in2="hardAlpha" operator="out"/>
<feColorMatrix type="matrix" values="0 0 0 0 0 0 0 0 0 0 0 0 0 0 0 0 0 0 0.25 0"/>
<feBlend mode="normal" in2="BackgroundImageFix" result="effect1_dropShadow_190_2998"/>
<feBlend mode="normal" in="SourceGraphic" in2="effect1_dropShadow_190_2998" result="shape"/>
</filter>
</defs>
</svg>
